<svg version="1.1" xmlns="http://www.w3.org/2000/svg" xmlns:xlink="http://www.w3.org/1999/xlink" width="108.4072" height="124.11427" viewBox="0,0,108.4072,124.11427"><g transform="translate(-185.7964,-117.94287)"><g data-paper-data="{&quot;isPaintingLayer&quot;:true}" fill="#ffffff" fill-rule="nonzero" stroke="none" stroke-width="0" stroke-linecap="butt" stroke-linejoin="miter" stroke-miterlimit="10" stroke-dasharray="" stroke-dashoffset="0" style="mix-blend-mode: normal"><path d="M185.7983,242.05714v-82.57143c0,0 -0.07005,-2.46829 0.63996,-6.27292c0.65938,-3.53337 1.99156,-8.2193 4.67745,-13.15113c1.5155,-2.78277 3.46201,-5.64384 5.96182,-8.4203c2.85012,-3.16554 6.20888,-5.60261 9.57924,-7.46634c3.76012,-2.07925 7.83095,-3.64823 10.90988,-4.53352c4.09082,-1.17624 8.76023,-1.69863 8.76023,-1.69863c0,0 14.81535,0.05444 29.16071,0.10715c1.75288,0.00644 3.49875,0.01286 5.20971,0.01914c2.65257,0.00975 5.22124,0.01918 7.6021,0.02793c2.34887,0.00863 4.51495,0.01659 6.39844,0.02351c1.44265,0.0053 2.71951,0.00999 3.78576,0.01391c2.10976,0.00775 4.43,0.01628 6.61336,0.0243c1.3469,0.00495 2.64171,0.00971 3.80289,0.01397c2.8743,0.01056 4.92983,0.01811 4.92983,0.01811l0.02041,3.76358c0,0 0.01042,1.92197 0.01844,3.3999c0.01418,2.61402 0.03376,6.22468 0.0564,10.39969c0.10587,19.52369 0.27867,51.38863 0.27867,51.38863l-24.71149,-0.18149l0.11428,-44.23394l-44.05922,0.16209c0,0 -0.84595,0.10011 -2.14446,0.50485c-1.19253,0.3717 -2.76676,1.00034 -4.41797,2.04434c-1.08284,0.68464 -2.19879,1.54791 -3.26191,2.63449c-1.10151,1.12581 -1.92679,2.33462 -2.54461,3.52934c-0.92189,1.78273 -1.38182,3.5341 -1.6082,4.93157c-0.28429,1.75492 -0.20028,2.95175 -0.20028,2.95175v82.57143z"/></g></g></svg>